<mxfile host="app.diagrams.net" modified="2023-03-28T08:49:49.510Z" agent="Mozilla/5.0 (Windows NT 10.0; Win64; x64; rv:109.0) Gecko/20100101 Firefox/111.0" etag="2C0Xy-d75xaCApBjy_Dm" version="21.1.1" type="device">
  <diagram id="C5RBs43oDa-KdzZeNtuy" name="Page-1">
    <mxGraphModel dx="1434" dy="754" grid="1" gridSize="10" guides="1" tooltips="1" connect="1" arrows="1" fold="1" page="1" pageScale="1" pageWidth="827" pageHeight="1169" math="0" shadow="0">
      <root>
        <mxCell id="WIyWlLk6GJQsqaUBKTNV-0" />
        <mxCell id="WIyWlLk6GJQsqaUBKTNV-1" parent="WIyWlLk6GJQsqaUBKTNV-0" />
        <mxCell id="v7x4BngGhmfdAd-HVqkD-1" value="" style="edgeStyle=orthogonalEdgeStyle;rounded=0;orthogonalLoop=1;jettySize=auto;html=1;" edge="1" parent="WIyWlLk6GJQsqaUBKTNV-1" source="WIyWlLk6GJQsqaUBKTNV-3" target="v7x4BngGhmfdAd-HVqkD-0">
          <mxGeometry relative="1" as="geometry" />
        </mxCell>
        <mxCell id="WIyWlLk6GJQsqaUBKTNV-3" value="Program start" style="rounded=1;whiteSpace=wrap;html=1;fontSize=12;glass=0;strokeWidth=1;shadow=0;" parent="WIyWlLk6GJQsqaUBKTNV-1" vertex="1">
          <mxGeometry x="160" y="80" width="120" height="40" as="geometry" />
        </mxCell>
        <mxCell id="v7x4BngGhmfdAd-HVqkD-5" style="edgeStyle=orthogonalEdgeStyle;rounded=0;orthogonalLoop=1;jettySize=auto;html=1;entryX=0.5;entryY=0;entryDx=0;entryDy=0;" edge="1" parent="WIyWlLk6GJQsqaUBKTNV-1" source="v7x4BngGhmfdAd-HVqkD-0" target="v7x4BngGhmfdAd-HVqkD-4">
          <mxGeometry relative="1" as="geometry" />
        </mxCell>
        <mxCell id="v7x4BngGhmfdAd-HVqkD-0" value="celler tjekkes" style="whiteSpace=wrap;html=1;rounded=1;glass=0;strokeWidth=1;shadow=0;" vertex="1" parent="WIyWlLk6GJQsqaUBKTNV-1">
          <mxGeometry x="160" y="190" width="120" height="60" as="geometry" />
        </mxCell>
        <mxCell id="v7x4BngGhmfdAd-HVqkD-7" value="" style="edgeStyle=orthogonalEdgeStyle;rounded=0;orthogonalLoop=1;jettySize=auto;html=1;" edge="1" parent="WIyWlLk6GJQsqaUBKTNV-1" source="v7x4BngGhmfdAd-HVqkD-4" target="v7x4BngGhmfdAd-HVqkD-6">
          <mxGeometry relative="1" as="geometry" />
        </mxCell>
        <mxCell id="v7x4BngGhmfdAd-HVqkD-9" style="edgeStyle=orthogonalEdgeStyle;rounded=0;orthogonalLoop=1;jettySize=auto;html=1;entryX=0.5;entryY=0;entryDx=0;entryDy=0;" edge="1" parent="WIyWlLk6GJQsqaUBKTNV-1" source="v7x4BngGhmfdAd-HVqkD-4" target="v7x4BngGhmfdAd-HVqkD-8">
          <mxGeometry relative="1" as="geometry" />
        </mxCell>
        <mxCell id="v7x4BngGhmfdAd-HVqkD-12" style="edgeStyle=orthogonalEdgeStyle;rounded=0;orthogonalLoop=1;jettySize=auto;html=1;entryX=0;entryY=0.5;entryDx=0;entryDy=0;" edge="1" parent="WIyWlLk6GJQsqaUBKTNV-1" source="v7x4BngGhmfdAd-HVqkD-4" target="v7x4BngGhmfdAd-HVqkD-10">
          <mxGeometry relative="1" as="geometry" />
        </mxCell>
        <mxCell id="v7x4BngGhmfdAd-HVqkD-30" style="edgeStyle=orthogonalEdgeStyle;rounded=0;orthogonalLoop=1;jettySize=auto;html=1;entryX=0.5;entryY=0;entryDx=0;entryDy=0;" edge="1" parent="WIyWlLk6GJQsqaUBKTNV-1" source="v7x4BngGhmfdAd-HVqkD-4" target="v7x4BngGhmfdAd-HVqkD-31">
          <mxGeometry relative="1" as="geometry">
            <mxPoint x="220" y="520" as="targetPoint" />
          </mxGeometry>
        </mxCell>
        <mxCell id="v7x4BngGhmfdAd-HVqkD-4" value="Jord" style="rounded=0;whiteSpace=wrap;html=1;" vertex="1" parent="WIyWlLk6GJQsqaUBKTNV-1">
          <mxGeometry x="175" y="310" width="90" height="50" as="geometry" />
        </mxCell>
        <mxCell id="v7x4BngGhmfdAd-HVqkD-18" style="edgeStyle=orthogonalEdgeStyle;rounded=0;orthogonalLoop=1;jettySize=auto;html=1;entryX=0;entryY=0.5;entryDx=0;entryDy=0;" edge="1" parent="WIyWlLk6GJQsqaUBKTNV-1" source="v7x4BngGhmfdAd-HVqkD-6" target="v7x4BngGhmfdAd-HVqkD-15">
          <mxGeometry relative="1" as="geometry" />
        </mxCell>
        <mxCell id="v7x4BngGhmfdAd-HVqkD-6" value="3 græs naboer" style="whiteSpace=wrap;html=1;rounded=0;" vertex="1" parent="WIyWlLk6GJQsqaUBKTNV-1">
          <mxGeometry x="290" y="202.5" width="100" height="30" as="geometry" />
        </mxCell>
        <mxCell id="v7x4BngGhmfdAd-HVqkD-14" value="" style="edgeStyle=orthogonalEdgeStyle;rounded=0;orthogonalLoop=1;jettySize=auto;html=1;" edge="1" parent="WIyWlLk6GJQsqaUBKTNV-1" source="v7x4BngGhmfdAd-HVqkD-8" target="v7x4BngGhmfdAd-HVqkD-13">
          <mxGeometry relative="1" as="geometry" />
        </mxCell>
        <mxCell id="v7x4BngGhmfdAd-HVqkD-8" value="3 vand naboer" style="whiteSpace=wrap;html=1;rounded=0;" vertex="1" parent="WIyWlLk6GJQsqaUBKTNV-1">
          <mxGeometry x="290" y="440" width="100" height="30" as="geometry" />
        </mxCell>
        <mxCell id="v7x4BngGhmfdAd-HVqkD-25" value="" style="edgeStyle=orthogonalEdgeStyle;rounded=0;orthogonalLoop=1;jettySize=auto;html=1;" edge="1" parent="WIyWlLk6GJQsqaUBKTNV-1" source="v7x4BngGhmfdAd-HVqkD-10" target="v7x4BngGhmfdAd-HVqkD-24">
          <mxGeometry relative="1" as="geometry" />
        </mxCell>
        <mxCell id="v7x4BngGhmfdAd-HVqkD-10" value="3 sump naboer" style="whiteSpace=wrap;html=1;rounded=0;" vertex="1" parent="WIyWlLk6GJQsqaUBKTNV-1">
          <mxGeometry x="390" y="320" width="100" height="30" as="geometry" />
        </mxCell>
        <mxCell id="v7x4BngGhmfdAd-HVqkD-28" style="edgeStyle=orthogonalEdgeStyle;rounded=0;orthogonalLoop=1;jettySize=auto;html=1;entryX=0.5;entryY=1;entryDx=0;entryDy=0;" edge="1" parent="WIyWlLk6GJQsqaUBKTNV-1" source="v7x4BngGhmfdAd-HVqkD-13" target="v7x4BngGhmfdAd-HVqkD-26">
          <mxGeometry relative="1" as="geometry" />
        </mxCell>
        <mxCell id="v7x4BngGhmfdAd-HVqkD-29" style="edgeStyle=orthogonalEdgeStyle;rounded=0;orthogonalLoop=1;jettySize=auto;html=1;entryX=0.5;entryY=0;entryDx=0;entryDy=0;" edge="1" parent="WIyWlLk6GJQsqaUBKTNV-1" source="v7x4BngGhmfdAd-HVqkD-13" target="v7x4BngGhmfdAd-HVqkD-27">
          <mxGeometry relative="1" as="geometry" />
        </mxCell>
        <mxCell id="v7x4BngGhmfdAd-HVqkD-13" value="50%" style="rhombus;whiteSpace=wrap;html=1;rounded=0;" vertex="1" parent="WIyWlLk6GJQsqaUBKTNV-1">
          <mxGeometry x="450" y="422.5" width="60" height="65" as="geometry" />
        </mxCell>
        <mxCell id="v7x4BngGhmfdAd-HVqkD-19" style="edgeStyle=orthogonalEdgeStyle;rounded=0;orthogonalLoop=1;jettySize=auto;html=1;entryX=0.5;entryY=1;entryDx=0;entryDy=0;" edge="1" parent="WIyWlLk6GJQsqaUBKTNV-1" source="v7x4BngGhmfdAd-HVqkD-15" target="v7x4BngGhmfdAd-HVqkD-21">
          <mxGeometry relative="1" as="geometry">
            <mxPoint x="580" y="180" as="targetPoint" />
          </mxGeometry>
        </mxCell>
        <mxCell id="v7x4BngGhmfdAd-HVqkD-23" style="edgeStyle=orthogonalEdgeStyle;rounded=0;orthogonalLoop=1;jettySize=auto;html=1;entryX=0.5;entryY=0;entryDx=0;entryDy=0;" edge="1" parent="WIyWlLk6GJQsqaUBKTNV-1" source="v7x4BngGhmfdAd-HVqkD-15" target="v7x4BngGhmfdAd-HVqkD-22">
          <mxGeometry relative="1" as="geometry" />
        </mxCell>
        <mxCell id="v7x4BngGhmfdAd-HVqkD-15" value="50%" style="rhombus;whiteSpace=wrap;html=1;rounded=0;" vertex="1" parent="WIyWlLk6GJQsqaUBKTNV-1">
          <mxGeometry x="450" y="185" width="60" height="65" as="geometry" />
        </mxCell>
        <mxCell id="v7x4BngGhmfdAd-HVqkD-21" value="bliver græs" style="whiteSpace=wrap;html=1;rounded=0;" vertex="1" parent="WIyWlLk6GJQsqaUBKTNV-1">
          <mxGeometry x="550" y="160" width="100" height="30" as="geometry" />
        </mxCell>
        <mxCell id="v7x4BngGhmfdAd-HVqkD-22" value="bliver groende græs" style="whiteSpace=wrap;html=1;rounded=0;" vertex="1" parent="WIyWlLk6GJQsqaUBKTNV-1">
          <mxGeometry x="550" y="240" width="100" height="40" as="geometry" />
        </mxCell>
        <mxCell id="v7x4BngGhmfdAd-HVqkD-24" value="bliver til sump" style="whiteSpace=wrap;html=1;rounded=0;" vertex="1" parent="WIyWlLk6GJQsqaUBKTNV-1">
          <mxGeometry x="550" y="317.5" width="100" height="35" as="geometry" />
        </mxCell>
        <mxCell id="v7x4BngGhmfdAd-HVqkD-26" value="bliver vand" style="whiteSpace=wrap;html=1;rounded=0;" vertex="1" parent="WIyWlLk6GJQsqaUBKTNV-1">
          <mxGeometry x="550" y="400" width="100" height="30" as="geometry" />
        </mxCell>
        <mxCell id="v7x4BngGhmfdAd-HVqkD-27" value="bliver jord" style="whiteSpace=wrap;html=1;rounded=0;" vertex="1" parent="WIyWlLk6GJQsqaUBKTNV-1">
          <mxGeometry x="550" y="480" width="100" height="30" as="geometry" />
        </mxCell>
        <mxCell id="v7x4BngGhmfdAd-HVqkD-34" style="edgeStyle=orthogonalEdgeStyle;rounded=0;orthogonalLoop=1;jettySize=auto;html=1;entryX=0.5;entryY=1;entryDx=0;entryDy=0;" edge="1" parent="WIyWlLk6GJQsqaUBKTNV-1" source="v7x4BngGhmfdAd-HVqkD-31" target="v7x4BngGhmfdAd-HVqkD-32">
          <mxGeometry relative="1" as="geometry" />
        </mxCell>
        <mxCell id="v7x4BngGhmfdAd-HVqkD-36" style="edgeStyle=orthogonalEdgeStyle;rounded=0;orthogonalLoop=1;jettySize=auto;html=1;entryX=0.5;entryY=0;entryDx=0;entryDy=0;" edge="1" parent="WIyWlLk6GJQsqaUBKTNV-1" source="v7x4BngGhmfdAd-HVqkD-31" target="v7x4BngGhmfdAd-HVqkD-35">
          <mxGeometry relative="1" as="geometry" />
        </mxCell>
        <mxCell id="v7x4BngGhmfdAd-HVqkD-43" style="edgeStyle=orthogonalEdgeStyle;rounded=0;orthogonalLoop=1;jettySize=auto;html=1;entryX=0.5;entryY=0;entryDx=0;entryDy=0;" edge="1" parent="WIyWlLk6GJQsqaUBKTNV-1" source="v7x4BngGhmfdAd-HVqkD-31" target="v7x4BngGhmfdAd-HVqkD-44">
          <mxGeometry relative="1" as="geometry">
            <mxPoint x="220" y="720" as="targetPoint" />
          </mxGeometry>
        </mxCell>
        <mxCell id="v7x4BngGhmfdAd-HVqkD-31" value="Vand" style="rounded=0;whiteSpace=wrap;html=1;" vertex="1" parent="WIyWlLk6GJQsqaUBKTNV-1">
          <mxGeometry x="175" y="560" width="90" height="50" as="geometry" />
        </mxCell>
        <mxCell id="v7x4BngGhmfdAd-HVqkD-38" value="" style="edgeStyle=orthogonalEdgeStyle;rounded=0;orthogonalLoop=1;jettySize=auto;html=1;entryX=0;entryY=0.5;entryDx=0;entryDy=0;" edge="1" parent="WIyWlLk6GJQsqaUBKTNV-1" source="v7x4BngGhmfdAd-HVqkD-32" target="v7x4BngGhmfdAd-HVqkD-39">
          <mxGeometry relative="1" as="geometry">
            <mxPoint x="490" y="545" as="targetPoint" />
          </mxGeometry>
        </mxCell>
        <mxCell id="v7x4BngGhmfdAd-HVqkD-32" value="under 2 vand naboer" style="whiteSpace=wrap;html=1;rounded=0;" vertex="1" parent="WIyWlLk6GJQsqaUBKTNV-1">
          <mxGeometry x="290" y="530" width="120" height="30" as="geometry" />
        </mxCell>
        <mxCell id="v7x4BngGhmfdAd-HVqkD-42" style="edgeStyle=orthogonalEdgeStyle;rounded=0;orthogonalLoop=1;jettySize=auto;html=1;entryX=0;entryY=0.5;entryDx=0;entryDy=0;" edge="1" parent="WIyWlLk6GJQsqaUBKTNV-1" source="v7x4BngGhmfdAd-HVqkD-35" target="v7x4BngGhmfdAd-HVqkD-41">
          <mxGeometry relative="1" as="geometry" />
        </mxCell>
        <mxCell id="v7x4BngGhmfdAd-HVqkD-35" value="over 3 vand naboer" style="whiteSpace=wrap;html=1;rounded=0;" vertex="1" parent="WIyWlLk6GJQsqaUBKTNV-1">
          <mxGeometry x="290" y="610" width="120" height="30" as="geometry" />
        </mxCell>
        <mxCell id="v7x4BngGhmfdAd-HVqkD-39" value="bliver jord" style="whiteSpace=wrap;html=1;rounded=0;" vertex="1" parent="WIyWlLk6GJQsqaUBKTNV-1">
          <mxGeometry x="550" y="530" width="100" height="30" as="geometry" />
        </mxCell>
        <mxCell id="v7x4BngGhmfdAd-HVqkD-41" value="bliver vand" style="whiteSpace=wrap;html=1;rounded=0;" vertex="1" parent="WIyWlLk6GJQsqaUBKTNV-1">
          <mxGeometry x="550" y="610" width="100" height="30" as="geometry" />
        </mxCell>
        <mxCell id="v7x4BngGhmfdAd-HVqkD-48" style="edgeStyle=orthogonalEdgeStyle;rounded=0;orthogonalLoop=1;jettySize=auto;html=1;entryX=0.5;entryY=1;entryDx=0;entryDy=0;" edge="1" parent="WIyWlLk6GJQsqaUBKTNV-1" source="v7x4BngGhmfdAd-HVqkD-44" target="v7x4BngGhmfdAd-HVqkD-46">
          <mxGeometry relative="1" as="geometry" />
        </mxCell>
        <mxCell id="v7x4BngGhmfdAd-HVqkD-49" style="edgeStyle=orthogonalEdgeStyle;rounded=0;orthogonalLoop=1;jettySize=auto;html=1;entryX=0.5;entryY=0;entryDx=0;entryDy=0;" edge="1" parent="WIyWlLk6GJQsqaUBKTNV-1" source="v7x4BngGhmfdAd-HVqkD-44" target="v7x4BngGhmfdAd-HVqkD-47">
          <mxGeometry relative="1" as="geometry" />
        </mxCell>
        <mxCell id="v7x4BngGhmfdAd-HVqkD-54" style="edgeStyle=orthogonalEdgeStyle;rounded=0;orthogonalLoop=1;jettySize=auto;html=1;entryX=0.5;entryY=0;entryDx=0;entryDy=0;" edge="1" parent="WIyWlLk6GJQsqaUBKTNV-1" source="v7x4BngGhmfdAd-HVqkD-44" target="v7x4BngGhmfdAd-HVqkD-45">
          <mxGeometry relative="1" as="geometry" />
        </mxCell>
        <mxCell id="v7x4BngGhmfdAd-HVqkD-44" value="sump " style="rounded=0;whiteSpace=wrap;html=1;" vertex="1" parent="WIyWlLk6GJQsqaUBKTNV-1">
          <mxGeometry x="175" y="730" width="90" height="50" as="geometry" />
        </mxCell>
        <mxCell id="v7x4BngGhmfdAd-HVqkD-59" style="edgeStyle=orthogonalEdgeStyle;rounded=0;orthogonalLoop=1;jettySize=auto;html=1;entryX=0.5;entryY=1;entryDx=0;entryDy=0;" edge="1" parent="WIyWlLk6GJQsqaUBKTNV-1" source="v7x4BngGhmfdAd-HVqkD-45" target="v7x4BngGhmfdAd-HVqkD-57">
          <mxGeometry relative="1" as="geometry" />
        </mxCell>
        <mxCell id="v7x4BngGhmfdAd-HVqkD-60" style="edgeStyle=orthogonalEdgeStyle;rounded=0;orthogonalLoop=1;jettySize=auto;html=1;entryX=0.5;entryY=0;entryDx=0;entryDy=0;" edge="1" parent="WIyWlLk6GJQsqaUBKTNV-1" source="v7x4BngGhmfdAd-HVqkD-45" target="v7x4BngGhmfdAd-HVqkD-58">
          <mxGeometry relative="1" as="geometry" />
        </mxCell>
        <mxCell id="v7x4BngGhmfdAd-HVqkD-45" value="græs" style="rounded=0;whiteSpace=wrap;html=1;" vertex="1" parent="WIyWlLk6GJQsqaUBKTNV-1">
          <mxGeometry x="175" y="890" width="90" height="50" as="geometry" />
        </mxCell>
        <mxCell id="v7x4BngGhmfdAd-HVqkD-50" style="edgeStyle=orthogonalEdgeStyle;rounded=0;orthogonalLoop=1;jettySize=auto;html=1;" edge="1" parent="WIyWlLk6GJQsqaUBKTNV-1" source="v7x4BngGhmfdAd-HVqkD-46">
          <mxGeometry relative="1" as="geometry">
            <mxPoint x="550" y="705" as="targetPoint" />
          </mxGeometry>
        </mxCell>
        <mxCell id="v7x4BngGhmfdAd-HVqkD-46" value="under 4 sump naboer" style="whiteSpace=wrap;html=1;rounded=0;" vertex="1" parent="WIyWlLk6GJQsqaUBKTNV-1">
          <mxGeometry x="280" y="690" width="130" height="30" as="geometry" />
        </mxCell>
        <mxCell id="v7x4BngGhmfdAd-HVqkD-53" style="edgeStyle=orthogonalEdgeStyle;rounded=0;orthogonalLoop=1;jettySize=auto;html=1;" edge="1" parent="WIyWlLk6GJQsqaUBKTNV-1" source="v7x4BngGhmfdAd-HVqkD-47" target="v7x4BngGhmfdAd-HVqkD-52">
          <mxGeometry relative="1" as="geometry" />
        </mxCell>
        <mxCell id="v7x4BngGhmfdAd-HVqkD-47" value="over 2 sump naboer" style="whiteSpace=wrap;html=1;rounded=0;" vertex="1" parent="WIyWlLk6GJQsqaUBKTNV-1">
          <mxGeometry x="280" y="790" width="130" height="30" as="geometry" />
        </mxCell>
        <mxCell id="v7x4BngGhmfdAd-HVqkD-51" value="forbliver sump" style="whiteSpace=wrap;html=1;rounded=0;" vertex="1" parent="WIyWlLk6GJQsqaUBKTNV-1">
          <mxGeometry x="550" y="690" width="100" height="30" as="geometry" />
        </mxCell>
        <mxCell id="v7x4BngGhmfdAd-HVqkD-52" value="forbliver sump" style="whiteSpace=wrap;html=1;rounded=0;" vertex="1" parent="WIyWlLk6GJQsqaUBKTNV-1">
          <mxGeometry x="550" y="790" width="100" height="30" as="geometry" />
        </mxCell>
        <mxCell id="v7x4BngGhmfdAd-HVqkD-61" style="edgeStyle=orthogonalEdgeStyle;rounded=0;orthogonalLoop=1;jettySize=auto;html=1;" edge="1" parent="WIyWlLk6GJQsqaUBKTNV-1" source="v7x4BngGhmfdAd-HVqkD-57">
          <mxGeometry relative="1" as="geometry">
            <mxPoint x="550" y="865" as="targetPoint" />
          </mxGeometry>
        </mxCell>
        <mxCell id="v7x4BngGhmfdAd-HVqkD-57" value="under 2 græs naboer" style="whiteSpace=wrap;html=1;rounded=0;" vertex="1" parent="WIyWlLk6GJQsqaUBKTNV-1">
          <mxGeometry x="280" y="850" width="130" height="30" as="geometry" />
        </mxCell>
        <mxCell id="v7x4BngGhmfdAd-HVqkD-63" style="edgeStyle=orthogonalEdgeStyle;rounded=0;orthogonalLoop=1;jettySize=auto;html=1;" edge="1" parent="WIyWlLk6GJQsqaUBKTNV-1" source="v7x4BngGhmfdAd-HVqkD-58">
          <mxGeometry relative="1" as="geometry">
            <mxPoint x="550" y="965" as="targetPoint" />
          </mxGeometry>
        </mxCell>
        <mxCell id="v7x4BngGhmfdAd-HVqkD-58" value="over 3 græs naboer" style="whiteSpace=wrap;html=1;rounded=0;" vertex="1" parent="WIyWlLk6GJQsqaUBKTNV-1">
          <mxGeometry x="280" y="950" width="130" height="30" as="geometry" />
        </mxCell>
        <mxCell id="v7x4BngGhmfdAd-HVqkD-62" value="bliver jord" style="whiteSpace=wrap;html=1;rounded=0;" vertex="1" parent="WIyWlLk6GJQsqaUBKTNV-1">
          <mxGeometry x="550" y="850" width="100" height="30" as="geometry" />
        </mxCell>
        <mxCell id="v7x4BngGhmfdAd-HVqkD-64" value="bliver græs" style="whiteSpace=wrap;html=1;rounded=0;" vertex="1" parent="WIyWlLk6GJQsqaUBKTNV-1">
          <mxGeometry x="550" y="950" width="100" height="30" as="geometry" />
        </mxCell>
      </root>
    </mxGraphModel>
  </diagram>
</mxfile>
